<svg xmlns="http://www.w3.org/2000/svg" width="240.965" height="531.113" viewBox="0 0 240.965 531.113">
  <g id="Group_264" data-name="Group 264" transform="translate(-3882.197 -1557.289) rotate(180)">
    <path id="Path_101" data-name="Path 101" d="M-3908.162-2019.4s91.409,23.452,55.114,179.944,64.524,137.273,88.72,98.837,69.9-20.591,69.9-20.591,36.295,17.845,16.131,72.755-80.655,43.927-107.54,53.536,8.884,40.388,24.792,70.009,19.09,29.621,9.545,43.43-15.113,21.931-27.839,23.556-55.289,1.313-87.5-15.433-41.329-51.552-41.329-51.552Z" transform="translate(-215 -60)" fill="#ddd"/>
    <path id="Path_100" data-name="Path 100" d="M-3908.162-2019.4s93.346,23.452,56.282,179.944,65.891,137.273,90.6,98.837,71.382-20.591,71.382-20.591,37.064,17.845,16.473,72.755-82.364,43.927-109.818,53.536,9.073,40.388,25.318,70.009,19.494,29.621,9.747,43.43-15.433,21.931-28.429,23.556-56.461,1.313-89.349-15.433-42.2-51.552-42.2-51.552Z" transform="translate(-215 -69)" fill="#eee"/>
  </g>
</svg>
